<svg id="Camada_1" data-name="Camada 1" xmlns="http://www.w3.org/2000/svg" viewBox="0 0 1549.1 809.73"><defs><style>.cls-1{fill:#649bd1;}.cls-2{fill:#2d74bc;}.cls-3{fill:#7bd4e3;}.cls-4{fill:#537dac;}.cls-5{fill:#5688bf;}.cls-6{fill:#5587be;}.cls-7{fill:#709cc8;}.cls-8{fill:#5487be;}.cls-9{fill:#2a67b7;}</style></defs><title>Saved Games</title><path class="cls-1" d="M1251.08,487.1q75.62,132.39,151.24,264.76c-5.34,14-17.8,9.26-27.35,9.32-77.71.5-155.43.27-233.15.28-5,0-10.08-.1-15.11,0-20.71.52-22,2.2-11.18,20.77q61.28,105.43,123.29,210.46c5.1,8.65,11.19,16.81,13.86,26.76-.13,1.27-.28,2.51-.44,3.78a13.63,13.63,0,0,1-6,4.79c-30.76,5.22-61.74,1.67-92.61,2.36-22.29.5-44.6.18-66.9,1.3-35.85-3.78-71.82-.74-107.72-1.76-10.72-.31-21.6,1.33-32-2.43-13.43-12.2-2.1-22.74,3.45-32.28,38.75-66.61,76.41-133.85,115.52-200.25,16.54-28.08,16.3-26.42-16.16-29.64-72.66-7.19-145.4-2.12-218.07-3.89-10-.25-20.25,1.19-29.77-3.45-6.26-4.58-7.7-11.51-9.07-18.49a18.56,18.56,0,0,1,5.34-15c7-4,11.34-9.69,11.12-18.18a21.38,21.38,0,0,1,9.35-14.31c6.82-3.32,7.32-9.82,8.05-16.21a20.8,20.8,0,0,1,9.27-14c6.55-3.05,7.51-9.36,8.89-15.42a16.81,16.81,0,0,1,2.65-4.73c6.91-3.94,9.29-10.31,9.47-17.86a21.26,21.26,0,0,1,6.72-12.44c7.31-3.6,10.52-9.68,10.53-17.68A21.49,21.49,0,0,1,881,581.14c7.27-3.62,10.59-9.64,10.6-17.67a21.23,21.23,0,0,1,9.27-14.2c6.75-3.27,7.48-9.63,8.1-16a20.46,20.46,0,0,1,9.35-14.17c5.59-2.7,7.66-8,9.75-13.3a12.83,12.83,0,0,1,4.21-4.24c5.72-2.46,11.44-4.9,17.74-1.91,30.79,46.61,56.57,96.19,85.19,144.09,16.92,28.31,32.94,57.11,49.32,85.71,5.49,9.59,9.42,11.35,16.08.65,9.83-15.79,17.18-33.25,30.42-46.83a35.65,35.65,0,0,1,7.43-4.05c22.41-9.45,23.59-11.94,17.58-37,6.77-27.34,23.6-49.09,39.61-71.3,13.3-6.57,31.21-10.4,19-32.13,2-11.48,7.19-21,16.92-27.74,10.35.66,7.19-6.53,6.9-12.07.11-5.82,3.87-9.07,8.27-11.88Z" transform="translate(-8.63 -487.1)"/><path class="cls-1" d="M164.49,755.74q58.62-103.17,117.2-206.36c11.68-20.62,22.9-41.51,34.33-62.28h4.33a41.29,41.29,0,0,1,16.37,16.41C379.39,579.84,424,655.09,467.31,731c3.9,6.83,8,13.66,8,22a14.61,14.61,0,0,1-2.53,6.83c-1.13.65-2.24,1.24-3.38,1.86-1.32.19-2.6.34-3.9.53q-136.28,0-272.48-.07c-8.61,0-17.37.45-25.41-3.7C166.54,757.59,165.52,756.67,164.49,755.74Z" transform="translate(-8.63 -487.1)"/><path class="cls-2" d="M471.93,755.44c0-1.43,0-2.85,0-4.28,3.51-22.8,18.09-40.37,29.13-59.35,35.73-61.39,70.59-123.28,106.32-184.67,4.39-7.56,9.28-14.43,16-20h4.32c14,8.34,18.2,23.79,25.74,36.51,40,67.36,79.51,135,119.12,202.6,5.23,8.94,13.7,17.54,7.82,29.7a16.37,16.37,0,0,1-6.33,4.08c-56.07,4.92-112.21,1.45-168.3,2.08C570,761,534.17,762,498.39,761.55,489.17,761.43,479.57,762.56,471.93,755.44Z" transform="translate(-8.63 -487.1)"/><path class="cls-3" d="M780.13,750.59Q712,634.08,644,517.56c-5.79-9.93-10.85-20.29-16.26-30.46H939.39a4.78,4.78,0,0,1,1.6,4.81c-1.87,5.45-6.48,8.64-10.32,12.47h0c-3.77,5.34-2.59,13.27-9,17.21-5.38,2.69-8.35,6.91-8.29,13.06-3.81,5.33-2.52,13.35-9.1,17.21-5.28,2.75-8.29,6.93-8.23,13-2.76,6.81-4.86,14.08-12.44,17.44l-4.89,12.83c-2.72,6.84-4.84,14.11-12.44,17.48l-4.89,12.81c-2.69,6.86-4.84,14.12-12.45,17.49a40.66,40.66,0,0,0-.49,4.25c-3.79,5.34-2.57,13.31-9,17.25-5.35,2.68-8.35,6.87-8.31,13-3.75,5.38-2.5,13.38-9.08,17.27-5.26,2.74-8.29,6.9-8.25,13-2.72,6.83-4.83,14.1-12.42,17.47L796.44,738C793.08,744.91,794.07,757.43,780.13,750.59Z" transform="translate(-8.63 -487.1)"/><path class="cls-2" d="M939.06,491.24a28.65,28.65,0,0,0,.33-4.14h307.36l-4.52,12.58c-3.21,4.22-3.51,10.3-8.55,13.35L1217,539.22c2.67,16-10,24-18.12,34.4-14,22.38-30.21,43.52-38.86,68.92-5.7,16.32-12.82,31.79-26,43.66-10.89,17.62-22.82,34.71-32.31,53-7.06,13.65-12.94,7.94-17.68.36-12.38-19.78-23.71-40.23-35.35-60.47q-35.37-61.47-70.57-123c-10.48-18.44-20.38-37.21-30.54-55.84C944.4,497.54,936.73,499.1,939.06,491.24Z" transform="translate(-8.63 -487.1)"/><path class="cls-4" d="M623.38,487.1c-28.74,51.06-57.2,102.27-86.28,153.13-21.29,37.22-43.39,74-65.13,110.93L320.35,487.1Z" transform="translate(-8.63 -487.1)"/><path class="cls-5" d="M8.67,1023.9h4.18c2.52-1.26-1-.66,1.69-1.18,47-9.18,94-9.86,141,.43.81,9.54-6.66,10.43-12.37,10.76a1090,1090,0,0,1-116.87.1c-4.93-.25-9.15-3.28-13.39-5.77H8.67Z" transform="translate(-8.63 -487.1)"/><path class="cls-4" d="M606,755.66l173.69-.17q3.68-2.36,5.41,1.65a14,14,0,0,1-.51,7C741.91,841.75,696,917.55,652.5,994.78c-12.29,21.84-11.66,23.12,14,23.15q117.82.18,235.66.08c10.07,0,20.18-.65,30.22,1.07a17.39,17.39,0,0,1,6.46,3l1.94,3-1.51,3.27-311-.08a4.82,4.82,0,0,1-5.74.93C591.87,983,566,934,538,886.12c-23.24-39.75-48-78.67-67.95-120.31a8.12,8.12,0,0,1,1.39-6l.76.18c31.09-4.85,62.39-.79,93.56-2.3C579.2,757,592.79,760.06,606,755.66Z" transform="translate(-8.63 -487.1)"/><path class="cls-4" d="M1086.42,1027.93c12.14-6.39,25.27-3.79,38-3.85,42.23-.22,84.46,0,126.69.12a8.18,8.18,0,0,1,.85,6.78c-42.06,77.24-87.27,152.69-130.87,229.07-4.2,7.35-10,14-11,25.65,95.91,2,191.46-.85,287,1.48a15.41,15.41,0,0,1,9.24,5.1c-3.77,6.64-10.23,3.93-15.48,3.94-94.2.18-188.4.08-282.6.21-8.94,0-15.89-.6-21.26-10.08-48.88-86.18-98.35-172-147.65-258l.22-.23C988.44,1024.61,1037.43,1025.16,1086.42,1027.93Z" transform="translate(-8.63 -487.1)"/><path class="cls-4" d="M8.68,1028.23c41.57,0,83.14.14,124.71-.13,7.55,0,15.92,2.77,22.42-4a14.73,14.73,0,0,1,11.07-5.76c48.28-1.08,96.6-4.42,144.76,1.76a13.86,13.86,0,0,1,5.71,5c3.39,11.9-4,20.64-9.2,29.86-43,76.38-87.58,151.91-132.42,230.71,98.35,1.78,194.43-.88,290.47,1.42a15.34,15.34,0,0,1,9.38,5.21c-3.74,6.76-10.24,3.83-15.44,3.85q-141.36.29-282.71.14c-7.79,0-15,.88-20.13-8.17Q83.38,1158,8.68,1028.23Z" transform="translate(-8.63 -487.1)"/><path class="cls-2" d="M316.17,1028.32l-.17-4.4,3.12-2.86c10.15-4.89,21.07-4,31.81-4,82.71,0,165.44-1.55,248.05,4.32,8.66.61,17.35.58,24.42,6.73l4.85.21-152.66,264-8.2-.38c-21.44-26.45-35.23-57.57-52.37-86.62-31.09-52.69-60.61-106.3-91.47-159.13A84.91,84.91,0,0,1,316.17,1028.32Z" transform="translate(-8.63 -487.1)"/><path class="cls-4" d="M1406.23,1292.28l-8-.11c-22.84-28.94-38.13-62.46-56.65-94-28.4-48.34-55.78-97.29-83.63-146-4.2-7.34-10.05-14.4-6.84-24,0-1.36,0-2.71,0-4.07l.43-.26c4.94-4.86,11.22-6.51,17.78-6.5,69.67,0,139.36-2.48,209,1.27,17.38,5.63,35.34,2.75,53,3.53,9.1.4,18.76-1.41,26.26,6.06-21.67,45.53-49.14,87.82-73.88,131.63C1458.61,1204.43,1432.13,1248.19,1406.23,1292.28Z" transform="translate(-8.63 -487.1)"/><path class="cls-3" d="M1251.79,1020.48c-21.7-23.39-34-52.81-50.16-79.66-33.33-55.3-64.6-111.86-97.88-167.2-9.46-15.71-6.59-18.44,10.4-18.35,88.49.49,177,.31,265.49.1,7.6,0,15.94,2.81,22.68-3.51,4.22.81,4.72,4,4.7,7.44-14.84,37.65-38.84,70.27-58.29,105.38-25.42,45.88-52,91.12-78.44,136.45C1265.76,1008.91,1262.86,1018.74,1251.79,1020.48Z" transform="translate(-8.63 -487.1)"/><path class="cls-2" d="M1251.79,1020.48q71.71-123.15,143.48-246.3c3.19-5.47,4.91-12.24,11.75-14.88q73.34,126.3,146.59,252.65c2.05,3.54,2.78,7.85,4.12,11.8-25.69,4-51.4,3.17-77.12.32l-229.09-.14A20,20,0,0,1,1251.79,1020.48Z" transform="translate(-8.63 -487.1)"/><path class="cls-6" d="M1480.61,1024.07l77.12-.32c0,1.51-.07,3-.1,4.54C1532,1025.73,1505.85,1033.45,1480.61,1024.07Z" transform="translate(-8.63 -487.1)"/><path class="cls-2" d="M783.49,759.89q0-2,.09-3.93c5.62-4.77,11.38-5,17.28-.54,57.6.07,115.22,1.21,172.78-.19,34.61-.85,68.63,6.57,103.15,4.58,13.8-.8,13.86,3.57,7.4,14.62-43.5,74.39-86.39,149.13-129.26,223.88-4.61,8-7.84,16.86-11.72,25.31-1.07,2.12-2.38,2.17-3.89.44l-4.43-.33c-7.25-3.75-12.31-9.36-16.37-16.56C875.67,931.27,832.12,855.76,789,780,785.44,773.73,781.42,767.67,783.49,759.89Z" transform="translate(-8.63 -487.1)"/><path class="cls-1" d="M1134,686.2c7.91-15,13.16-31.59,26-43.66C1171.5,665.39,1165.73,675.08,1134,686.2Z" transform="translate(-8.63 -487.1)"/><path class="cls-7" d="M939.32,1024.06a34,34,0,0,1,3.9-.43c40.23.09,80.48,0,120.71.4,7.58.07,16-2.83,22.5,3.9l-147,.23C939.4,1026.8,939.35,1025.43,939.32,1024.06Z" transform="translate(-8.63 -487.1)"/><path class="cls-1" d="M1198.84,573.62q9.06-17.21,18.12-34.41C1231.67,558,1229,563.18,1198.84,573.62Z" transform="translate(-8.63 -487.1)"/><path class="cls-1" d="M800.86,755.42l-17.28.54a16.09,16.09,0,0,0-3.91-.47c.16-1.63.3-3.26.46-4.9,9.84,1.53,10.44-8.94,16.31-12.56C799.41,743.45,801.55,749.07,800.86,755.42Z" transform="translate(-8.63 -487.1)"/><path class="cls-1" d="M1233.68,513a15,15,0,0,1,8.55-13.35c-2.55,6.79,11.09,9.32,5,16C1243.3,519.85,1238.15,514.58,1233.68,513Z" transform="translate(-8.63 -487.1)"/><path class="cls-1" d="M939.06,491.24l8.49,9c-5.22,3.05-10.75,4.79-16.87,4.13C930.87,498.34,933.75,494,939.06,491.24Z" transform="translate(-8.63 -487.1)"/><path class="cls-1" d="M848.94,642.94l12.45-17.49C861.62,634.4,862.86,644.07,848.94,642.94Z" transform="translate(-8.63 -487.1)"/><path class="cls-1" d="M866.28,612.64l12.44-17.47C878.93,604.09,880.18,613.76,866.28,612.64Z" transform="translate(-8.63 -487.1)"/><path class="cls-1" d="M883.61,582.33l12.44-17.44C896.24,573.8,897.49,583.46,883.61,582.33Z" transform="translate(-8.63 -487.1)"/><path class="cls-1" d="M801.36,725.19q6.21-8.73,12.43-17.47C814,716.63,815.26,726.31,801.36,725.19Z" transform="translate(-8.63 -487.1)"/><path class="cls-1" d="M822,694.71c1.31-6.66,3.53-12.84,9.08-17.26C830.3,684.36,834.29,693.81,822,694.71Z" transform="translate(-8.63 -487.1)"/><path class="cls-1" d="M839.42,664.44c1.21-6.69,3.49-12.82,9-17.25C847.63,654.08,851.55,663.46,839.42,664.44Z" transform="translate(-8.63 -487.1)"/><path class="cls-1" d="M904.28,551.85c1.3-6.65,3.53-12.82,9.11-17.21C912.55,541.54,916.51,551,904.28,551.85Z" transform="translate(-8.63 -487.1)"/><path class="cls-1" d="M921.67,521.58c1.22-6.68,3.46-12.81,9-17.21C929.89,511.26,933.78,520.62,921.67,521.58Z" transform="translate(-8.63 -487.1)"/><path class="cls-2" d="M316,1023.92l-160.19.22-147.18-.25c40.86-72,81.45-144.1,122.76-215.81,10.29-17.85,18-37.51,33.1-52.34l-.16-.07c19.23,17.24,27.88,41.5,40.7,62.83,35.46,59,69.89,118.67,104.75,178.06,4,6.78,8.36,13.46,8.87,21.69a10.49,10.49,0,0,1-2.66,5.68Z" transform="translate(-8.63 -487.1)"/><path class="cls-3" d="M316.51,1019.23q-73.5-125.93-147-251.88c-2.13-3.66-3.49-7.77-5.21-11.68l282.11-.07c8.59,0,17.3-.82,25,4.17.11,1.46.23,2.92.34,4.37-1.72,18.85-14.33,32.71-23.2,47.94-36.83,63.29-72.5,127.25-109.88,190.21C334,1010.28,331.71,1023.93,316.51,1019.23Z" transform="translate(-8.63 -487.1)"/><path class="cls-8" d="M606,755.66c-8.64,7.8-19.14,3.81-28.73,4-35,.55-70,.28-105,.32l-.3-4.51Z" transform="translate(-8.63 -487.1)"/><path class="cls-9" d="M783.49,759.89q75.71,131.93,151.4,263.84-142.46.06-284.9.18c-11.29,0-21.81.53-12.38-15.69Q709,885.47,780.29,762.67C781,761.51,782.41,760.8,783.49,759.89Z" transform="translate(-8.63 -487.1)"/><path class="cls-1" d="M316.51,1019.23c10.52-1.18,12.82-10.74,16.86-17.7q66.9-115.21,133.22-230.78c1.39-2.4,3.47-4.41,5.23-6.61,39.09,66.63,78.48,133.08,117.07,200,12.09,21,26.78,40.63,34.51,64-102.41-5.72-204.93-3.58-307.41-4.18C316.16,1022.36,316.34,1020.8,316.51,1019.23Z" transform="translate(-8.63 -487.1)"/><path class="cls-9" d="M1251.06,1028.26Q1318.5,1146.66,1386,1265c4.94,8.66,11,16.8,12.23,27.14H1096.43c16.46-29.14,31.56-56.26,47-83.17q48.79-85,97.81-169.8C1243.81,1034.76,1245.93,1030.25,1251.06,1028.26Z" transform="translate(-8.63 -487.1)"/><path class="cls-9" d="M316.17,1028.32c23.67,26.36,36.65,59.37,54.72,89.17,30.8,50.8,59.31,103,88.53,154.73,3.46,6.14,5.35,13.16,8,19.77H165.57C216.78,1202.32,266.47,1115.32,316.17,1028.32Z" transform="translate(-8.63 -487.1)"/></svg>